<?xml version="1.0" encoding="UTF-8" standalone="no"?>
<svg
   xmlns:dc="http://purl.org/dc/elements/1.1/"
   xmlns:cc="http://creativecommons.org/ns#"
   xmlns:rdf="http://www.w3.org/1999/02/22-rdf-syntax-ns#"
   xmlns:svg="http://www.w3.org/2000/svg"
   xmlns="http://www.w3.org/2000/svg"
   xmlns:sodipodi="http://sodipodi.sourceforge.net/DTD/sodipodi-0.dtd"
   xmlns:inkscape="http://www.inkscape.org/namespaces/inkscape"
   width="147.16499"
   height="22.889999"
   viewBox="0 0 147.165 22.889999"
   fill="none"
   version="1.1"
   id="svg20"
   sodipodi:docname="sejutajasa-site-logo-new.svg"
   inkscape:version="1.0.1 (3bc2e813f5, 2020-09-07)">
  <metadata
     id="metadata26">
    <rdf:RDF>
      <cc:Work
         rdf:about="">
        <dc:format>image/svg+xml</dc:format>
        <dc:type
           rdf:resource="http://purl.org/dc/dcmitype/StillImage" />
        <dc:title></dc:title>
      </cc:Work>
    </rdf:RDF>
  </metadata>
  <defs
     id="defs24">
    <clipPath
       id="b0676a0625">
      <path
         d="m 308.14844,414.95703 h 58.96875 v 59.19922 h -58.96875 z m 0,0"
         clip-rule="nonzero"
         id="path4" />
    </clipPath>
    <clipPath
       id="7e3f87bfb7">
      <path
         d="m 315.64844,414.95703 h 19.82031 c 17.125,0 31.64844,13.22656 31.64844,29.54688 0,16.3164 -14.52344,29.54296 -31.64844,29.54296 h -19.82031 c -1.98828,0 -3.89453,-0.78906 -5.30078,-2.19921 -1.40625,-1.40625 -2.19922,-3.3125 -2.19922,-5.30079 v -44.08984 c 0,-1.98828 0.79297,-3.89453 2.19922,-5.30078 1.40625,-1.40625 3.3125,-2.19922 5.30078,-2.19922 z m 0,0"
         clip-rule="nonzero"
         id="path7" />
    </clipPath>
    <clipPath
       id="792ad1af1a">
      <rect
         x="0"
         width="60"
         y="0"
         height="61"
         id="rect16" />
    </clipPath>
    <clipPath
       id="08226897bf">
      <path
         d="m 0.148438,0.957031 h 58.96875 V 60.15625 H 0.148438 Z m 0,0"
         clip-rule="nonzero"
         id="path10" />
    </clipPath>
    <clipPath
       id="6fd68fe37c">
      <path
         d="M 7.648438,0.957031 H 27.46875 c 17.125,0 31.648438,13.226563 31.648438,29.546875 0,16.316406 -14.523438,29.542969 -31.648438,29.542969 H 7.648438 c -1.988282,0 -3.894532,-0.789063 -5.300782,-2.199219 -1.40625,-1.40625 -2.199218,-3.3125 -2.199218,-5.300781 V 8.457031 C 0.148438,6.46875 0.941406,4.5625 2.347656,3.15625 3.753906,1.75 5.660156,0.957031 7.648438,0.957031 Z m 0,0"
         clip-rule="nonzero"
         id="path13" />
    </clipPath>
    <clipPath
       id="2735139d91">
      <path
         d="m 307.78906,335.95312 h 59.55078 v 59.31641 h -59.55078 z m 0,0"
         clip-rule="nonzero"
         id="path19" />
    </clipPath>
    <clipPath
       id="a28a4a85c5">
      <path
         d="m 359.60937,395.03906 h -20.09375 c -17.1289,0 -31.65625,-13.22656 -31.65625,-29.54297 0,-16.3164 14.52735,-29.54297 31.65625,-29.54297 h 20.09375 c 1.98829,0 3.89454,0.78907 5.30079,2.19532 1.40625,1.40625 2.19921,3.3125 2.19921,5.30468 v 44.08594 c 0,1.98828 -0.79296,3.89844 -2.19921,5.30469 -1.40625,1.40625 -3.3125,2.19531 -5.30079,2.19531 z m 0,0"
         clip-rule="nonzero"
         id="path22" />
    </clipPath>
    <clipPath
       id="7484f83364">
      <rect
         x="0"
         width="61"
         y="0"
         height="61"
         id="rect31" />
    </clipPath>
    <clipPath
       id="0a6038996d">
      <path
         d="M 0.789062,0.953125 H 60.199219 V 60.039062 H 0.789062 Z m 0,0"
         clip-rule="nonzero"
         id="path25" />
    </clipPath>
    <clipPath
       id="6e9d26abda">
      <path
         d="m 52.609375,60.039062 h -20.09375 c -17.128906,0 -31.65625,-13.226562 -31.65625,-29.542968 0,-16.316406 14.527344,-29.542969 31.65625,-29.542969 h 20.09375 c 1.988281,0 3.894531,0.789063 5.300781,2.195313 1.40625,1.40625 2.199219,3.3125 2.199219,5.304687 v 44.085937 c 0,1.988282 -0.792969,3.898438 -2.199219,5.304688 -1.40625,1.40625 -3.3125,2.195312 -5.300781,2.195312 z m 0,0"
         clip-rule="nonzero"
         id="path28" />
    </clipPath>
    <clipPath
       id="b948a27488">
      <path
         d="m 386.44531,335.95312 h 59.2461 v 59.25 h -59.2461 z m 0,0"
         clip-rule="nonzero"
         id="path49" />
    </clipPath>
    <clipPath
       id="31d469d243">
      <path
         d="m 445.69141,343.45312 v 44.25 c 0,4.14063 -3.35547,7.5 -7.5,7.5 h -44.2461 c -4.14453,0 -7.5,-3.35937 -7.5,-7.5 v -44.25 c 0,-4.14062 3.35547,-7.5 7.5,-7.5 h 44.2461 c 4.14453,0 7.5,3.35938 7.5,7.5 z m 0,0"
         clip-rule="nonzero"
         id="path52" />
    </clipPath>
    <clipPath
       id="e9ae160c2c">
      <rect
         x="0"
         width="60"
         y="0"
         height="61"
         id="rect61" />
    </clipPath>
    <clipPath
       id="ecb6576c7a">
      <path
         d="m 0.445312,0.953125 h 59.246094 v 59.25 H 0.445312 Z m 0,0"
         clip-rule="nonzero"
         id="path55" />
    </clipPath>
    <clipPath
       id="2fe05378b2">
      <path
         d="m 59.691406,8.453125 v 44.25 c 0,4.140625 -3.355468,7.5 -7.5,7.5 H 7.945312 c -4.144531,0 -7.5,-3.359375 -7.5,-7.5 v -44.25 c 0,-4.140625 3.355469,-7.5 7.5,-7.5 h 44.246094 c 4.144532,0 7.5,3.359375 7.5,7.5 z m 0,0"
         clip-rule="nonzero"
         id="path58" />
    </clipPath>
    <clipPath
       id="c9a021fc67">
      <path
         d="m 386.44531,414.36719 h 59.2461 v 59.25 h -59.2461 z m 0,0"
         clip-rule="nonzero"
         id="path34" />
    </clipPath>
    <clipPath
       id="ee36e812c9">
      <path
         d="m 445.69141,421.86719 v 44.25 c 0,4.14062 -3.35547,7.5 -7.5,7.5 h -44.2461 c -4.14453,0 -7.5,-3.35938 -7.5,-7.5 v -44.25 c 0,-4.14063 3.35547,-7.5 7.5,-7.5 h 44.2461 c 4.14453,0 7.5,3.35937 7.5,7.5 z m 0,0"
         clip-rule="nonzero"
         id="path37" />
    </clipPath>
    <clipPath
       id="400af4aafa">
      <rect
         x="0"
         width="60"
         y="0"
         height="60"
         id="rect46" />
    </clipPath>
    <clipPath
       id="1cd46bdfba">
      <path
         d="m 0.445312,0.367188 h 59.246094 v 59.25 H 0.445312 Z m 0,0"
         clip-rule="nonzero"
         id="path40" />
    </clipPath>
    <clipPath
       id="8a25deedf3">
      <path
         d="m 59.691406,7.867188 v 44.25 c 0,4.140624 -3.355468,7.5 -7.5,7.5 H 7.945312 c -4.144531,0 -7.5,-3.359376 -7.5,-7.5 v -44.25 c 0,-4.140626 3.355469,-7.5 7.5,-7.5 h 44.246094 c 4.144532,0 7.5,3.359374 7.5,7.5 z m 0,0"
         clip-rule="nonzero"
         id="path43" />
    </clipPath>
    <clipPath
       id="cc93201b7a">
      <rect
         x="0"
         width="663"
         y="0"
         height="122"
         id="rect64" />
    </clipPath>
    <clipPath
       id="8fbb8c13be">
      <path
         d="m 120.35547,416.16797 h 67.41406 v 67.67969 h -67.41406 z m 0,0"
         clip-rule="nonzero"
         id="path4-9" />
    </clipPath>
    <clipPath
       id="2165dbcef3">
      <path
         d="m 127.85547,416.16797 h 23.73047 c 19.57812,0 36.18359,15.12109 36.18359,33.77734 0,18.65235 -16.60547,33.77735 -36.18359,33.77735 h -23.73047 c -1.99219,0 -3.89844,-0.79297 -5.30469,-2.19922 -1.40625,-1.40625 -2.19531,-3.3125 -2.19531,-5.30078 v -52.55469 c 0,-1.98828 0.78906,-3.89453 2.19531,-5.30078 1.40625,-1.41016 3.3125,-2.19922 5.30469,-2.19922 z m 0,0"
         clip-rule="nonzero"
         id="path7-9" />
    </clipPath>
    <clipPath
       id="64b3724d38">
      <rect
         x="0"
         width="68"
         y="0"
         height="68"
         id="rect16-7" />
    </clipPath>
    <clipPath
       id="dfe28cd4d6">
      <path
         d="M 0.355469,0.167969 H 67.769531 V 67.839844 H 0.355469 Z m 0,0"
         clip-rule="nonzero"
         id="path10-5" />
    </clipPath>
    <clipPath
       id="af0ea3d1c8">
      <path
         d="m 7.855469,0.167969 h 23.730469 c 19.578124,0 36.183593,15.121093 36.183593,33.777343 0,18.652344 -16.605469,33.777344 -36.183593,33.777344 H 7.855469 c -1.992188,0 -3.898438,-0.792968 -5.304688,-2.199218 -1.40625,-1.40625 -2.195312,-3.3125 -2.195312,-5.300782 V 7.667969 c 0,-1.988281 0.789062,-3.894531 2.195312,-5.300781 1.40625,-1.410157 3.3125,-2.199219 5.304688,-2.199219 z m 0,0"
         clip-rule="nonzero"
         id="path13-4" />
    </clipPath>
    <clipPath
       id="a010ecb1b4">
      <path
         d="m 120.26563,326.27734 h 67.49609 v 67.23047 h -67.49609 z m 0,0"
         clip-rule="nonzero"
         id="path19-7" />
    </clipPath>
    <clipPath
       id="1fee40d5e1">
      <path
         d="m 180.26172,393.50781 h -23.89844 c -19.49219,0 -36.01953,-15.05078 -36.01953,-33.61719 0,-18.5625 16.52734,-33.61328 36.01953,-33.61328 h 23.89844 c 4.14062,0 7.5,3.35547 7.5,7.5 v 52.23047 c 0,4.14453 -3.35938,7.5 -7.5,7.5 z m 0,0"
         clip-rule="nonzero"
         id="path22-6" />
    </clipPath>
    <clipPath
       id="2bd5fd7230">
      <rect
         x="0"
         width="68"
         y="0"
         height="68"
         id="rect31-2" />
    </clipPath>
    <clipPath
       id="62a2e519a9">
      <path
         d="M 0.265625,0.277344 H 67.761719 V 67.507812 H 0.265625 Z m 0,0"
         clip-rule="nonzero"
         id="path25-4" />
    </clipPath>
    <clipPath
       id="7fa7bd0e59">
      <path
         d="M 60.261719,67.507812 H 36.363281 c -19.492187,0 -36.019531,-15.050781 -36.019531,-33.617187 0,-18.5625 16.527344,-33.613281 36.019531,-33.613281 h 23.898438 c 4.140625,0 7.5,3.355468 7.5,7.5 v 52.230468 c 0,4.144532 -3.359375,7.5 -7.5,7.5 z m 0,0"
         clip-rule="nonzero"
         id="path28-2" />
    </clipPath>
    <clipPath
       id="d76bee7384">
      <path
         d="m 210.42578,416.16797 h 67.23438 v 67.23437 h -67.23438 z m 0,0"
         clip-rule="nonzero"
         id="path34-9" />
    </clipPath>
    <clipPath
       id="788a2eee94">
      <path
         d="m 277.66016,423.66797 v 52.23437 c 0,1.98828 -0.78907,3.89844 -2.19532,5.30469 -1.40625,1.40625 -3.3164,2.19531 -5.30468,2.19531 h -52.23438 c -1.98828,0 -3.89453,-0.78906 -5.30078,-2.19531 -1.40625,-1.40625 -2.19922,-3.31641 -2.19922,-5.30469 v -52.23437 c 0,-1.98828 0.79297,-3.89453 2.19922,-5.30078 1.40625,-1.41016 3.3125,-2.19922 5.30078,-2.19922 h 52.23438 c 1.98828,0 3.89843,0.78906 5.30468,2.19922 1.40625,1.40625 2.19532,3.3125 2.19532,5.30078 z m 0,0"
         clip-rule="nonzero"
         id="path37-8" />
    </clipPath>
    <clipPath
       id="3f8264859b">
      <rect
         x="0"
         width="68"
         y="0"
         height="68"
         id="rect46-3" />
    </clipPath>
    <clipPath
       id="df8e124989">
      <path
         d="M 0.425781,0.167969 H 67.660156 V 67.402344 H 0.425781 Z m 0,0"
         clip-rule="nonzero"
         id="path40-2" />
    </clipPath>
    <clipPath
       id="91a1320744">
      <path
         d="m 67.660156,7.667969 v 52.234375 c 0,1.988281 -0.789062,3.898437 -2.195312,5.304687 -1.40625,1.40625 -3.316406,2.195313 -5.304688,2.195313 H 7.925781 C 5.9375,67.402344 4.03125,66.613281 2.625,65.207031 1.21875,63.800781 0.425781,61.890625 0.425781,59.902344 V 7.667969 C 0.425781,5.679688 1.21875,3.773438 2.625,2.367188 4.03125,0.957031 5.9375,0.167969 7.925781,0.167969 h 52.234375 c 1.988282,0 3.898438,0.789062 5.304688,2.199219 1.40625,1.40625 2.195312,3.3125 2.195312,5.300781 z m 0,0"
         clip-rule="nonzero"
         id="path43-7" />
    </clipPath>
    <clipPath
       id="175b4c4bb1">
      <path
         d="m 210.42578,326.27734 h 67.23438 v 67.23438 h -67.23438 z m 0,0"
         clip-rule="nonzero"
         id="path49-6" />
    </clipPath>
    <clipPath
       id="618bfcf341">
      <path
         d="m 277.66016,333.77734 v 52.23438 c 0,1.98828 -0.78907,3.89844 -2.19532,5.30469 -1.40625,1.40625 -3.3164,2.19531 -5.30468,2.19531 h -52.23438 c -1.98828,0 -3.89453,-0.78906 -5.30078,-2.19531 -1.40625,-1.40625 -2.19922,-3.31641 -2.19922,-5.30469 v -52.23438 c 0,-1.98828 0.79297,-3.89453 2.19922,-5.30078 1.40625,-1.40625 3.3125,-2.19922 5.30078,-2.19922 h 52.23438 c 1.98828,0 3.89843,0.79297 5.30468,2.19922 1.40625,1.40625 2.19532,3.3125 2.19532,5.30078 z m 0,0"
         clip-rule="nonzero"
         id="path52-3" />
    </clipPath>
    <clipPath
       id="14a0a81fa1">
      <rect
         x="0"
         width="68"
         y="0"
         height="68"
         id="rect61-2" />
    </clipPath>
    <clipPath
       id="698566690b">
      <path
         d="M 0.425781,0.277344 H 67.660156 V 67.511719 H 0.425781 Z m 0,0"
         clip-rule="nonzero"
         id="path55-7" />
    </clipPath>
    <clipPath
       id="fd08ab33f7">
      <path
         d="m 67.660156,7.777344 v 52.234375 c 0,1.988281 -0.789062,3.898437 -2.195312,5.304687 -1.40625,1.40625 -3.316406,2.195313 -5.304688,2.195313 H 7.925781 C 5.9375,67.511719 4.03125,66.722656 2.625,65.316406 1.21875,63.910156 0.425781,62 0.425781,60.011719 V 7.777344 C 0.425781,5.789062 1.21875,3.882812 2.625,2.476562 4.03125,1.070312 5.9375,0.277344 7.925781,0.277344 h 52.234375 c 1.988282,0 3.898438,0.792968 5.304688,2.199218 1.40625,1.40625 2.195312,3.3125 2.195312,5.300782 z m 0,0"
         clip-rule="nonzero"
         id="path58-0" />
    </clipPath>
    <clipPath
       id="be47535006">
      <rect
         x="0"
         width="998"
         y="0"
         height="182"
         id="rect64-5" />
    </clipPath>
  </defs>
  <sodipodi:namedview
     pagecolor="#ffffff"
     bordercolor="#666666"
     borderopacity="1"
     objecttolerance="10"
     gridtolerance="10"
     guidetolerance="10"
     inkscape:pageopacity="0"
     inkscape:pageshadow="2"
     inkscape:window-width="1920"
     inkscape:window-height="1009"
     id="namedview22"
     showgrid="false"
     inkscape:zoom="3.3670673"
     inkscape:cx="124.04464"
     inkscape:cy="63.577927"
     inkscape:window-x="-8"
     inkscape:window-y="-8"
     inkscape:window-maximized="1"
     inkscape:current-layer="g840"
     inkscape:document-rotation="0" />
  <g
     aria-label="SateraHealth.id"
     id="text853"
     style="font-style:normal;font-variant:normal;font-weight:normal;font-stretch:normal;font-size:19.8135px;line-height:1.25;font-family:'MS Reference Sans Serif';-inkscape-font-specification:'MS Reference Sans Serif, Normal';font-variant-ligatures:normal;font-variant-caps:normal;font-variant-numeric:normal;font-variant-east-asian:normal;fill:#1f2c33;fill-opacity:1;stroke:none;stroke-width:0.619171">
    <g
       id="g840"
       transform="matrix(1.208504,0,0,1.208504,147.2991,-84.230023)">
      <g
         id="g1393"
         transform="matrix(0.31262101,0,0,0.31262101,549.16175,-281.86314)"
         inkscape:export-filename="C:\Users\permadisatya\Downloads\g1393.png"
         inkscape:export-xdpi="300"
         inkscape:export-ydpi="300">
        <path
           id="path944-0-2-5"
           style="fill:#fda549;fill-opacity:1;stroke-width:0.46245"
           d="m -1765.2818,1142.728 c -3.1026,0.03 -4.8348,0.8425 -6.8996,3.2342 -1.3998,1.6209 -1.5557,1.6909 -2.0165,0.8945 -1.9199,-3.3227 -3.5355,-4.1907 -7.691,-4.1015 -2.5516,0.045 -4.419,0.9452 -6.0194,2.8799 -0.6453,0.7784 -1.2845,1.4154 -1.4308,1.4154 -0.1465,0 -0.2588,-0.841 -0.2588,-1.8659 v -1.8658 h -1.834 -1.8338 v 13.294 13.295 h 2.0631 2.0633 v -8.9976 c 0,-8.4026 0.073,-9.1346 1.0312,-11.0783 1.3328,-2.6886 3.41,-3.8393 6.4562,-3.5713 1.474,0.1334 2.5491,0.5328 3.2104,1.204 0.9523,0.9675 1.0005,1.4526 1.1322,11.7261 l 0.1314,10.7165 h 2.0059 2.0051 l 0.1483,-9.4457 c 0.1465,-8.8637 0.2122,-9.5511 1.1865,-11.1456 2.0556,-3.3633 6.876,-4.3131 9.3118,-1.835 l 1.34,1.3634 v 10.5308 10.5316 h 2.0935 2.0945 l -0.1465,-10.845 c -0.1315,-9.888 -0.2282,-11.0073 -1.0913,-12.6811 -1.2668,-2.4577 -3.6404,-3.683 -7.0598,-3.6532 z m -47.2822,9e-4 c -4.0653,-0.1032 -8.1399,1.5584 -10.1501,4.5543 -2.7858,4.1525 -3.3013,11.1856 -1.1848,16.1894 1.1365,2.6863 4.2804,5.679 6.6953,6.371 2.6475,0.7591 7.8215,0.3677 9.9539,-0.7531 3.5826,-1.8832 5.4121,-4.7288 6.1786,-9.6096 1.1105,-7.0675 -1.2623,-13.0355 -6.1491,-15.4678 -1.6489,-0.8216 -3.4951,-1.2353 -5.3432,-1.283 z m -27.4701,0.03 c -5.2002,0 -9.1206,2.4811 -11.1781,7.0744 -1.4072,3.1507 -1.3634,10.0938 0.088,13.2995 1.622,3.5816 3.961,5.7221 7.4225,6.7937 v 0 c 1.7053,0.5268 5.4949,0.4971 7.4654,-0.06 1.9946,-0.5641 4.6614,-2.7831 5.6269,-4.6829 0.926,-1.8233 0.85,-2.1652 -0.6714,-2.9645 -1.3136,-0.6907 -1.3517,-0.6757 -2.2744,0.9168 -1.5523,2.6767 -3.4267,3.5696 -7.0994,3.3837 -3.0075,-0.154 -3.2199,-0.2426 -4.8909,-2.0644 -0.961,-1.0479 -1.9698,-2.7193 -2.2404,-3.7137 -1.0387,-3.8045 -0.3964,-8.8893 1.4569,-11.5419 1.1031,-1.5782 4.0879,-3.0697 6.1734,-3.084 2.1921,-0.019 5.0504,1.3112 6.1214,2.8416 1.138,1.6267 1.3983,1.6505 2.9782,0.268 l 1.2333,-1.0791 -1.551,-1.7976 c -2.1462,-2.4873 -4.8063,-3.5904 -8.6574,-3.5904 z m 27.0914,3.4182 c 0.5806,0 1.185,0.06 1.8114,0.1691 4.029,0.692 6.1789,4.4013 6.1349,10.5708 -0.03,4.4124 -1.3765,7.4962 -3.8505,8.8463 v -10e-4 c -2.2066,1.204 -6.61,1.1803 -8.5856,-0.045 -2.9685,-1.8411 -4.4337,-7.4947 -3.3366,-12.8703 0.8778,-4.305 3.7612,-6.7131 7.8264,-6.6707 z m -47.5915,18.2029 c -0.7007,0.019 -1.4043,0.2783 -1.9628,0.8467 -1.5728,1.601 -1.1264,3.8031 0.9303,4.58 1.9086,0.7219 4.1129,-0.6475 4.1129,-2.5527 0,-1.7456 -1.5377,-2.909 -3.0804,-2.8744 z"
           sodipodi:nodetypes="cccccsscccccccsccsccccccsccccccscccsssssccccccccccsccscsssscsccsccccccsssscsss" />
        <path
           style="fill:#2a2e35;fill-opacity:1;fill-rule:evenodd;stroke:#000000;stroke-width:0.00465357;stroke-miterlimit:4.1;stop-color:#000000"
           d="m -1968.4391,1136.5477 c -1.8268,-0.237 -3.4269,-1.5513 -4.1784,-3.433 -1.6212,-4.0593 0.8949,-7.9678 5.129,-7.9678 2.703,0 4.6659,1.7958 5.2833,4.8335 0.4394,2.1603 -0.4035,4.5053 -2.008,5.5864 -1.1832,0.7974 -2.7806,1.1682 -4.2259,0.9809 z"
           id="path999-8-6" />
        <path
           style="fill:#2a2e35;fill-opacity:1;stroke:none;stroke-width:0.246252"
           d="m -1877.1672,1167.3817 v 2.9806 h 9.0331 v -26.8256 h -9.0331 v 2.4838 c -2.2094,-1.9439 -4.8559,-3.2144 -7.8124,-3.2287 -2.5145,-0.016 -4.8021,0.09 -7.0799,1.3218 -13.6319,7.3805 -5.5395,31.5698 10.0095,26.4077 1.8775,-0.623 3.4424,-1.7949 4.8828,-3.1396 m -6.8361,-16.8158 c 7.4291,-1.0772 9.8534,11.162 2.4414,12.5115 -2.1728,0.3955 -4.7411,0.024 -6.2963,-1.6804 -3.4594,-3.8008 -1.0278,-10.1229 3.8549,-10.8311"
           id="path967-2-5-4"
           sodipodi:nodetypes="cccccccccccscc" />
        <path
           style="fill:#2a2e35;fill-opacity:1;fill-rule:evenodd;stroke:#000000;stroke-width:0.00499999;stroke-miterlimit:4.1;stop-color:#000000"
           d="m -1947.4248,1171.5449 c -2.8741,-0.2568 -5.5599,-1.5342 -7.555,-3.5933 -1.6935,-1.7479 -2.7473,-3.6699 -3.4644,-6.3187 -0.3178,-1.174 -0.3429,-1.4696 -0.3432,-4.0446 0,-2.7044 0.011,-2.8203 0.4217,-4.3657 0.8093,-3.0436 2.5624,-5.9607 4.5426,-7.5587 2.2198,-1.7913 4.4212,-2.5632 7.2999,-2.5598 2.6922,0 5.0865,0.7055 7.678,2.2523 0.8486,0.5065 1.5722,0.9209 1.608,0.9209 0.036,0 0.065,-0.5358 0.065,-1.1906 v -1.1906 h 4.4318 4.4318 v 13.4276 13.4276 h -4.4275 -4.4274 l -0.037,-1.4883 -0.037,-1.4883 -0.6615,0.6093 c -1.9009,1.751 -3.7332,2.6899 -5.887,3.0165 -1.3318,0.202 -2.482,0.2476 -3.638,0.1444 z m 5.6912,-7.9491 c 2.7689,-0.5118 4.5664,-2.8959 4.5595,-6.0471 -0.01,-2.5905 -1.3773,-5.0079 -3.409,-6.0081 -0.7197,-0.3543 -1.0436,-0.4299 -2.0472,-0.4779 -2.7415,-0.131 -4.8932,1.0056 -5.9669,3.1519 -1.6272,3.2525 -0.3507,7.3296 2.7919,8.9173 1.0658,0.5385 2.6761,0.722 4.0717,0.4639 z"
           id="path1063-2" />
        <path
           style="fill:#2a2e35;fill-opacity:1;fill-rule:evenodd;stroke:#000000;stroke-width:0.00499999;stroke-miterlimit:4.1;stop-color:#000000"
           d="m -1917.411,1171.297 c -2.4182,-0.4429 -4.2305,-1.1276 -5.3784,-2.0323 -1.0151,-0.7999 -1.1371,-1.6419 -0.4465,-3.0812 0.4455,-0.9284 2.4524,-4.0084 2.7997,-4.2967 0.1493,-0.1239 0.4058,0 1.2834,0.6397 2.1188,1.5348 3.8863,2.2052 5.5838,2.1178 1.1714,-0.06 1.8812,-0.4039 2.2325,-1.0809 0.6183,-1.1914 -0.1779,-2.1898 -2.4887,-3.1208 -5.2035,-2.0965 -7.2141,-3.7002 -8.0877,-6.4514 -0.8185,-2.5774 -0.084,-5.4869 1.921,-7.6133 1.4951,-1.5853 3.1764,-2.4458 5.7953,-2.966 1.4131,-0.2807 4.6513,-0.312 6.1286,-0.059 1.918,0.3282 6.0854,1.5215 6.0854,1.7425 0,0.081 -2.7569,5.9674 -2.8282,6.0387 -0.02,0.02 -0.7435,-0.2021 -1.6087,-0.4928 -1.9462,-0.6538 -3.2257,-0.9243 -4.3726,-0.9243 -1.7063,0 -2.5014,0.4839 -2.5014,1.5223 0,1.1235 0.8822,1.7604 3.4518,2.4923 3.6153,1.0298 5.946,2.4703 7.2971,4.5102 0.7871,1.1883 1.0015,1.9519 1.0607,3.7783 0.093,2.8592 -0.4961,4.5216 -2.2058,6.229 -2.1785,2.1755 -5.0971,3.1201 -10.0007,3.2367 -1.931,0.046 -2.6345,0.01 -3.7206,-0.1887 z"
           id="path1065-3" />
        <path
           style="fill:#3aaff2;fill-opacity:1;stroke:none;stroke-width:0.246252"
           d="m -2079.133,1124.672 c -7.4015,1.4108 -5.1615,12.8567 2.1972,11.4416 7.2045,-1.385 4.9486,-12.8037 -2.1972,-11.4416 m 48.8272,18.2643 h -3.662 v 6.9548 h 3.662 c 0,5.3875 -1.3285,13.3949 2.29,17.88 2.2974,2.8478 6.3798,3.0561 9.6728,2.4667 0.9743,-0.1743 3.0907,-0.4573 3.4911,-1.5663 0.6107,-1.6871 -1.3916,-5.3691 -1.7822,-7.1063 -0.8913,0.2425 -2.0053,0.8504 -2.9191,0.4303 -1.3067,-0.6015 -1.4688,-2.142 -1.4751,-3.4105 -0.016,-2.8977 -2e-4,-5.7958 -2e-4,-8.6935 h 5.371 v -6.9548 h -5.371 v -6.9548 l -0.2508,-2.8309 -4.1435,-0.3978 -4.4915,0.2552 -0.391,2.7253 v 7.2031 m -113.0351,17.8838 c -0.8406,1.2966 -3.367,4.385 -3.1685,5.9575 0.2493,1.9796 4.5471,2.9745 6.0981,3.3167 5.4415,1.2007 14.5298,0.4771 15.9497,-6.2936 0.9939,-4.7397 -1.1692,-8.3438 -5.4518,-10.2153 -1.4763,-0.6451 -6.4933,-1.3709 -6.2055,-3.6836 0.1363,-1.0934 1.4265,-1.3042 2.2993,-1.3723 2.2741,-0.1775 4.2421,0.9978 6.3475,1.61 l 2.6855,-6.2097 c -6.2709,-2.1584 -18.6642,-3.984 -20.1559,5.4646 -0.1947,1.2322 -0.1059,2.5382 0.2828,3.7257 1.6853,5.152 7.4208,4.1339 10.2457,7.5048 0.9675,1.1545 0.1449,2.4721 -1.115,2.8869 -1.3779,0.4533 -2.9182,-0.164 -4.1501,-0.7687 -1.2355,-0.6071 -2.3832,-1.4307 -3.662,-1.923 m 52.9776,2.7322 c -1.548,-0.9192 -4.5314,-3.114 -6.3475,-3.0531 -1.342,0.048 -2.593,1.8229 -3.9062,2.2811 -3.8901,1.3574 -8.2013,-0.9155 -8.5448,-5.1893 h 19.2868 c 0,-4.3347 -0.5858,-8.7796 -3.9099,-11.8792 -7.8909,-7.3579 -22.244,-3.122 -24.4907,7.6568 -3.3506,16.0745 20.2713,23.8275 27.9123,10.1837 m 101.8053,3.2288 v 2.9806 h 9.033 v -26.8256 h -9.033 v 2.4838 c -2.2095,-1.9439 -4.8559,-3.2143 -7.8124,-3.2287 -2.5146,-0.016 -4.8022,0.09 -7.08,1.3219 -13.6319,7.3805 -5.5394,31.5698 10.0096,26.4076 1.8774,-0.6229 3.4423,-1.7948 4.8828,-3.1396 m -80.321,-23.845 v 12.9161 c 0,3.2486 0.023,6.8335 1.7754,9.687 4.3456,7.08 20.8822,7.1301 25.2095,0 1.6982,-2.7986 1.5791,-6.0328 1.5791,-9.1903 v -13.4128 h -9.033 v 11.9225 c 0,2.1863 0.1417,4.6428 -1.3169,6.4473 -2.2531,2.7869 -7.079,2.0874 -8.4257,-1.2315 -1.9677,-4.8497 -0.7555,-11.9744 -0.7555,-17.1383 h -9.0331 m -29.7847,9.4386 h -10.2537 c 0.8991,-6.1028 8.7633,-5.2278 10.2537,0 m 103.2697,-2.4093 c 7.4291,-1.0772 9.8534,11.162 2.4415,12.5115 -2.1729,0.3954 -4.7412,0.024 -6.2963,-1.6804 -3.4595,-3.8008 -1.0279,-10.1229 3.8548,-10.8311"
           id="path967-5-2"
           sodipodi:nodetypes="cccccccssccccccccccccccccsssssccscscccccsccssccccccccccccscssccsssccccccscc" />
        <path
           id="path997-8-0-5"
           style="fill:#3aaff2;fill-opacity:1;fill-rule:evenodd;stroke:#000000;stroke-width:0.00465354;stroke-miterlimit:4.1;stop-color:#000000"
           d="m -2083.5861,1142.6695 c -0.03,18.5675 -0.1923,28.2843 -0.3648,28.9301 -0.3165,1.1832 -0.8099,2.1094 -1.5142,2.8447 -0.8726,0.9105 -1.5591,1.2129 -2.7228,1.1969 -1.1812,-0.016 -1.8974,-0.2819 -4.194,-1.5565 -1.4609,-0.8106 -1.8367,-0.9732 -1.9327,-0.8346 -0.3509,0.5062 -1.9735,4.0801 -2.2836,5.0297 -0.7172,2.1978 -0.6198,2.9478 0.5162,3.963 1.2371,1.1055 4.2833,2.3586 6.6126,2.7208 v 0 c 1.3537,0.2127 3.8065,0.2421 4.9816,0.063 6.1991,-0.9471 9.5485,-4.5468 10.4045,-11.1822 0.2477,-1.9235 0.5049,-3.3168 0.4579,-15.5717 l 0.1163,-15.6007 z"
           sodipodi:nodetypes="cssssssssscsccc" />
        <path
           id="path997-8-0-5-2"
           style="fill:#2a2e35;fill-opacity:1;fill-rule:evenodd;stroke:#000000;stroke-width:0.00465354;stroke-miterlimit:4.1;stop-color:#000000"
           d="m -1973.0841,1142.4543 c -0.03,18.5675 -0.1923,28.2843 -0.3648,28.9301 -0.3165,1.1832 -0.8099,2.1094 -1.5142,2.8447 -0.8726,0.9105 -1.5591,1.2129 -2.7228,1.1969 -1.1812,-0.016 -1.8974,-0.2819 -4.194,-1.5565 -1.4609,-0.8106 -1.8367,-0.9732 -1.9327,-0.8346 -0.3509,0.5062 -1.9735,4.0801 -2.2836,5.0297 -0.7172,2.1978 -0.6198,2.9478 0.5162,3.963 1.2371,1.1055 4.2833,2.3586 6.6126,2.7208 v 0 c 1.3537,0.2127 3.8065,0.2421 4.9816,0.063 6.1991,-0.9471 9.5485,-4.5468 10.4045,-11.1822 0.2477,-1.9235 0.5049,-3.3168 0.4579,-15.5717 l 0.1163,-15.6007 z"
           sodipodi:nodetypes="cssssssssscsccc" />
      </g>
    </g>
  </g>
</svg>
